{"title":"Twin.Peaks.S01.Season.1.720p.5.1Ch.BluRay.ReEnc-DeeJayAhmed","uid":14479424,"size":3096329032,"categoryP":"other","categoryS":"other","magnet":"?xt=urn:btih:09200079010f5f30100ca335667d677b8a2a0a80&amp;dn=Twin.Peaks.S01.Season.1.720p.5.1Ch.BluRay.ReEnc-DeeJayAhmed&amp;tr=udp%3A%2F%2Ftracker.leechers-paradise.org%3A6969&amp;tr=udp%3A%2F%2Fzer0day.ch%3A1337&amp;tr=udp%3A%2F%2Fopen.demonii.com%3A1337&amp;tr=udp%3A%2F%2Ftracker.coppersurfer.tk%3A6969&amp;tr=udp%3A%2F%2Fexodus.desync.com%3A6969","seeders":5,"leechers":1,"uploader":"DeeJayPirate","files":19,"time":1461976595,"description":"DeeJayAhmed  \nhttps://www.DeeJayAhmed.com\r\r\nKeep Seeding!!=)) \r\nDo Comment On The A/V Quality Considering The Size Of The File..!\r\nHelp Me By Donating Bitcoins : 14i1UCWye2SCjoAHR5u6LDswWgAy55dxAv\r\n\r\nVideo \r\nID : 1 \r\nFormat : AVC \r\nFormat/Info : Advanced Video Codec \r\nFormat profile :    \r\nFormat settings, CABAC : Yes \r\nFormat settings, ReFrames : 8 frames \r\nCodec ID : V_MPEG4/ISO/AVC \r\nDuration : 1h 34mn \r\nBit rate : 800 Kbps \r\nWidth : 960 pixels \r\nHeight : 720 pixels \r\nDisplay aspect ratio : 4:3 \r\nFrame rate mode : Constant \r\nFrame rate : 23.976 (24000/1001) fps \r\nColor space : YUV \r\nChroma subsampling : 4:2:0 \r\nBit depth : 8 bits \r\nScan type : Progressive \r\nBits/(Pixel*Frame) : 0.048 \r\nStream size : 538 MiB (82%) \r\nDefault : Yes \r\nForced : No \r\n\r\nAudio \r\nID : 2 \r\nFormat : AAC \r\nFormat/Info : Advanced Audio Codec \r\nFormat profile : HE-AAC / LC \r\nCodec ID : A_AAC \r\nDuration : 1h 34mn \r\nBit rate : 178 Kbps \r\nChannel(s) : 6 channels \r\nChannel positions : Front: L C R, Side: L R, LFE \r\nSampling rate : 48.0 KHz / 24.0 KHz \r\nFrame rate : 23.438 fps (1024 spf) \r\nCompression mode : Lossy \r\nDelay relative to video : 31ms \r\nStream size : 120 MiB (18%) \r\nLanguage : English \r\nDefault : Yes \r\nForced : No","torrent":{"xt":"urn:btih:09200079010f5f30100ca335667d677b8a2a0a80","amp;dn":"Twin.Peaks.S01.Season.1.720p.5.1Ch.BluRay.ReEnc-DeeJayAhmed","amp;tr":["udp%3A%2F%2Ftracker.leechers-paradise.org%3A6969","udp%3A%2F%2Fzer0day.ch%3A1337","udp%3A%2F%2Fopen.demonii.com%3A1337","udp%3A%2F%2Ftracker.coppersurfer.tk%3A6969","udp%3A%2F%2Fexodus.desync.com%3A6969"],"infoHash":"09200079010f5f30100ca335667d677b8a2a0a80","infoHashBuffer":{"type":"Buffer","data":[9,32,0,121,1,15,95,48,16,12,163,53,102,125,103,123,138,42,10,128]},"announce":[],"urlList":[]}}